<svg width="50" height="32" viewBox="0 0 50 32" fill="none" xmlns="http://www.w3.org/2000/svg">
<rect width="50" height="32" rx="3" fill="#EDEDF0"/>
<path d="M22.465 21.5348H19.3867L21.3121 10.4993H24.3902L22.465 21.5348Z" fill="#00579F"/>
<path d="M33.6246 10.7699C33.0174 10.5466 32.0544 10.3 30.8636 10.3C27.8237 10.3 25.6831 11.8027 25.6699 13.951C25.6447 15.536 27.2026 16.4164 28.3678 16.9448C29.5587 17.4849 29.9636 17.8374 29.9636 18.3187C29.9514 19.058 29.0012 19.3988 28.1149 19.3988C26.886 19.3988 26.2275 19.2231 25.2267 18.8118L24.8214 18.6355L24.3906 21.1127C25.1126 21.4176 26.4427 21.6882 27.8237 21.7C31.0537 21.7 33.1565 20.2207 33.1814 17.9313C33.1937 16.6751 32.371 15.7125 30.5975 14.9259C29.5208 14.421 28.8615 14.0805 28.8615 13.5639C28.8741 13.0942 29.4192 12.6131 30.6345 12.6131C31.6352 12.5896 32.3705 12.8125 32.9275 13.0357L33.2059 13.1529L33.6246 10.7699Z" fill="#00579F"/>
<path d="M37.7157 17.6253C37.9692 16.9913 38.9447 14.5376 38.9447 14.5376C38.9319 14.5612 39.1977 13.892 39.3497 13.4811L39.5648 14.432C39.5648 14.432 40.1478 17.0735 40.2743 17.6253C39.7932 17.6253 38.3237 17.6253 37.7157 17.6253ZM41.5154 10.4993H39.1344C38.4001 10.4993 37.8423 10.6987 37.5255 11.4149L32.9531 21.5346H36.1831C36.1831 21.5346 36.7148 20.1726 36.8291 19.8792C37.1834 19.8792 40.3255 19.8792 40.7813 19.8792C40.8697 20.2667 41.1486 21.5346 41.1486 21.5346H43.9988L41.5154 10.4993Z" fill="#00579F"/>
<path d="M16.8187 10.4993L13.8041 18.0244L13.4747 16.4982C12.9173 14.7372 11.1694 12.8239 9.21875 11.8725L11.98 21.5231H15.2352L20.0737 10.4993H16.8187Z" fill="#00579F"/>
<path d="M11.0033 10.5H6.05067L6 10.723C9.86336 11.6388 12.422 13.8462 13.4732 16.4994L12.3966 11.4276C12.2193 10.7228 11.6746 10.5232 11.0033 10.5Z" fill="#FAA61A"/>
</svg>
